<mxfile host="app.diagrams.net" modified="2022-03-23T08:23:10.898Z" agent="5.0 (Windows)" etag="ysQTnlScrQW44vS-1Y6W" version="16.4.5" type="github">
  <diagram id="6a731a19-8d31-9384-78a2-239565b7b9f0" name="Page-1">
    <mxGraphModel dx="1422" dy="791" grid="1" gridSize="10" guides="1" tooltips="1" connect="1" arrows="1" fold="1" page="1" pageScale="1" pageWidth="1169" pageHeight="827" background="none" math="0" shadow="0">
      <root>
        <mxCell id="0" />
        <mxCell id="1" parent="0" />
        <mxCell id="-N1bG7u-i1x_XuRm3Mxu-71" value="" style="edgeStyle=orthogonalEdgeStyle;rounded=0;orthogonalLoop=1;jettySize=auto;html=1;" parent="1" source="-N1bG7u-i1x_XuRm3Mxu-55" target="-N1bG7u-i1x_XuRm3Mxu-59" edge="1">
          <mxGeometry relative="1" as="geometry" />
        </mxCell>
        <mxCell id="-N1bG7u-i1x_XuRm3Mxu-55" value="&lt;font style=&quot;font-size: 16px&quot;&gt;开始&lt;/font&gt;" style="strokeWidth=2;html=1;shape=mxgraph.flowchart.start_1;whiteSpace=wrap;" parent="1" vertex="1">
          <mxGeometry x="350" y="180" width="90" height="50" as="geometry" />
        </mxCell>
        <mxCell id="-N1bG7u-i1x_XuRm3Mxu-70" value="" style="edgeStyle=orthogonalEdgeStyle;rounded=0;orthogonalLoop=1;jettySize=auto;html=1;" parent="1" source="-N1bG7u-i1x_XuRm3Mxu-59" target="-N1bG7u-i1x_XuRm3Mxu-60" edge="1">
          <mxGeometry relative="1" as="geometry" />
        </mxCell>
        <mxCell id="-N1bG7u-i1x_XuRm3Mxu-59" value="上传语料文档&lt;br&gt;展示语料数据" style="rounded=1;whiteSpace=wrap;html=1;absoluteArcSize=1;arcSize=14;strokeWidth=2;" parent="1" vertex="1">
          <mxGeometry x="342.5" y="270" width="105" height="60" as="geometry" />
        </mxCell>
        <mxCell id="-N1bG7u-i1x_XuRm3Mxu-69" style="edgeStyle=orthogonalEdgeStyle;rounded=0;orthogonalLoop=1;jettySize=auto;html=1;exitX=0.5;exitY=1;exitDx=0;exitDy=0;entryX=0.5;entryY=0;entryDx=0;entryDy=0;" parent="1" source="-N1bG7u-i1x_XuRm3Mxu-60" target="-N1bG7u-i1x_XuRm3Mxu-61" edge="1">
          <mxGeometry relative="1" as="geometry" />
        </mxCell>
        <mxCell id="-N1bG7u-i1x_XuRm3Mxu-60" value="选择分词方法和停用词，展示预处理结果" style="rounded=1;whiteSpace=wrap;html=1;absoluteArcSize=1;arcSize=14;strokeWidth=2;" parent="1" vertex="1">
          <mxGeometry x="342.5" y="370" width="105" height="70" as="geometry" />
        </mxCell>
        <mxCell id="-N1bG7u-i1x_XuRm3Mxu-68" style="edgeStyle=orthogonalEdgeStyle;rounded=0;orthogonalLoop=1;jettySize=auto;html=1;exitX=0.5;exitY=1;exitDx=0;exitDy=0;entryX=0.5;entryY=0;entryDx=0;entryDy=0;" parent="1" source="-N1bG7u-i1x_XuRm3Mxu-61" target="-N1bG7u-i1x_XuRm3Mxu-62" edge="1">
          <mxGeometry relative="1" as="geometry" />
        </mxCell>
        <mxCell id="-N1bG7u-i1x_XuRm3Mxu-61" value="选择文本表示方法，展示结果" style="rounded=1;whiteSpace=wrap;html=1;absoluteArcSize=1;arcSize=14;strokeWidth=2;" parent="1" vertex="1">
          <mxGeometry x="342.5" y="480" width="105" height="60" as="geometry" />
        </mxCell>
        <mxCell id="-N1bG7u-i1x_XuRm3Mxu-67" style="edgeStyle=orthogonalEdgeStyle;rounded=0;orthogonalLoop=1;jettySize=auto;html=1;exitX=0.5;exitY=1;exitDx=0;exitDy=0;entryX=0.5;entryY=0;entryDx=0;entryDy=0;entryPerimeter=0;" parent="1" source="-N1bG7u-i1x_XuRm3Mxu-62" target="-N1bG7u-i1x_XuRm3Mxu-63" edge="1">
          <mxGeometry relative="1" as="geometry" />
        </mxCell>
        <mxCell id="-N1bG7u-i1x_XuRm3Mxu-62" value="选择聚类算法和参数，运行聚类算法，展示聚类结果" style="rounded=1;whiteSpace=wrap;html=1;absoluteArcSize=1;arcSize=14;strokeWidth=2;" parent="1" vertex="1">
          <mxGeometry x="517.5" y="250" width="105" height="70" as="geometry" />
        </mxCell>
        <mxCell id="-N1bG7u-i1x_XuRm3Mxu-73" value="是" style="edgeStyle=orthogonalEdgeStyle;rounded=0;orthogonalLoop=1;jettySize=auto;html=1;" parent="1" source="-N1bG7u-i1x_XuRm3Mxu-63" target="-N1bG7u-i1x_XuRm3Mxu-72" edge="1">
          <mxGeometry relative="1" as="geometry" />
        </mxCell>
        <mxCell id="-N1bG7u-i1x_XuRm3Mxu-76" style="edgeStyle=orthogonalEdgeStyle;rounded=0;orthogonalLoop=1;jettySize=auto;html=1;exitX=1;exitY=0.5;exitDx=0;exitDy=0;exitPerimeter=0;entryX=1;entryY=0.5;entryDx=0;entryDy=0;" parent="1" source="-N1bG7u-i1x_XuRm3Mxu-63" target="-N1bG7u-i1x_XuRm3Mxu-62" edge="1">
          <mxGeometry relative="1" as="geometry">
            <mxPoint x="840" y="400" as="targetPoint" />
            <Array as="points">
              <mxPoint x="670" y="425" />
              <mxPoint x="670" y="285" />
            </Array>
          </mxGeometry>
        </mxCell>
        <mxCell id="-N1bG7u-i1x_XuRm3Mxu-77" value="否" style="edgeLabel;html=1;align=center;verticalAlign=middle;resizable=0;points=[];" parent="-N1bG7u-i1x_XuRm3Mxu-76" vertex="1" connectable="0">
          <mxGeometry x="-0.3212" y="1" relative="1" as="geometry">
            <mxPoint as="offset" />
          </mxGeometry>
        </mxCell>
        <mxCell id="-N1bG7u-i1x_XuRm3Mxu-63" value="对聚类结果&lt;br&gt;是否满意" style="strokeWidth=2;html=1;shape=mxgraph.flowchart.decision;whiteSpace=wrap;" parent="1" vertex="1">
          <mxGeometry x="500" y="380" width="140" height="90" as="geometry" />
        </mxCell>
        <mxCell id="-N1bG7u-i1x_XuRm3Mxu-72" value="&lt;font style=&quot;font-size: 16px&quot;&gt;结束&lt;/font&gt;" style="strokeWidth=2;html=1;shape=mxgraph.flowchart.start_1;whiteSpace=wrap;" parent="1" vertex="1">
          <mxGeometry x="525" y="510" width="90" height="50" as="geometry" />
        </mxCell>
      </root>
    </mxGraphModel>
  </diagram>
</mxfile>
